<svg version="1.2" xmlns="http://www.w3.org/2000/svg" viewBox="0 0 32 32" width="32" height="32">
	<style>
		.s0 { fill: #000000 } 
	</style>
	<g>
		<path class="s0" d="m15.22 2.17c-1.48 0.17-2.06 0.27-3.08 0.57-1.65 0.48-3.3 1.34-4.71 2.45q-2.86 2.26-4.33 5.75c-0.16 0.38-0.51 1.5-0.64 2.04-0.51 2.14-0.54 4.36-0.09 6.37 0.19 0.83 0.69 2.33 0.91 2.73l0.08 0.12-0.03-0.17c-0.12-0.84-0.15-1.18-0.15-1.72 0-1.16 0.13-1.98 0.48-3.05 0.52-1.56 1.23-2.63 2.49-3.75 0.35-0.3 1.03-0.74 1.62-1.02 0.66-0.32 1.2-0.51 1.86-0.65 1.03-0.22 0.93-0.22 6.35-0.22 3.93-0.01 5.07 0.01 5.06 0.04-0.01 0.04-0.2 0.29-0.42 0.57-0.22 0.28-0.52 0.66-0.67 0.85-0.36 0.48-0.61 0.8-1.81 2.33-0.57 0.72-1.09 1.38-1.15 1.47-0.07 0.08-0.38 0.48-0.71 0.9-0.32 0.4-0.87 1.1-1.21 1.54-0.34 0.44-0.64 0.81-0.66 0.82-0.21 0.13 0.43 0.04 1.46-0.22 0.48-0.11 1.56-0.45 2.13-0.66 1.07-0.4 2.64-1.25 3.54-1.93 2.27-1.71 3.73-4.07 3.83-6.23 0.01-0.29 0.04-0.54 0.06-0.54 0.02 0 0.15 0.25 0.29 0.54 0.98 2.01 1.27 3.55 0.99 5.14-0.13 0.71-0.54 1.81-0.88 2.31-0.2 0.3-0.21 0.32-0.12 0.26 0.23-0.12 1.04-1.14 1.49-1.87 0.12-0.2 0.42-0.81 0.53-1.12 0.51-1.32 0.72-2.68 0.62-3.92-0.06-0.81-0.17-1.35-0.45-2.3-0.07-0.25-0.34-0.87-0.51-1.21-0.25-0.49-0.38-0.69-0.75-1.14-0.18-0.23-0.34-0.47-0.36-0.54-0.02-0.1-0.82-0.94-1.15-1.2-0.05-0.03-0.24-0.19-0.43-0.34-0.7-0.56-1.86-1.29-2.59-1.64q-2.1-0.99-4.31-1.27c-0.52-0.07-2.22-0.13-2.58-0.09zm2.65 2.3c2.51 0.45 4.46 1.56 5.46 3.1 0.24 0.37 0.58 1.08 0.7 1.46 0.22 0.67 0.27 1.11 0.25 1.91-0.02 0.65-0.03 0.8-0.15 1.25-0.51 1.9-1.7 3.46-3.75 4.9-0.24 0.17-0.47 0.31-0.49 0.3-0.02 0 0.04-0.11 0.14-0.23 0.28-0.33 1.66-2.14 2.14-2.8 0.75-1.02 0.98-1.48 1.2-2.41 0.25-1.08 0.1-2.44-0.4-3.42-0.59-1.21-1.65-2.15-3.1-2.77-0.52-0.22-1.73-0.55-1.79-0.48-0.01 0.01 0.11 0.06 0.28 0.11 0.4 0.13 1.04 0.46 1.49 0.76 0.66 0.45 1.18 0.94 1.64 1.57 0.2 0.26 0.59 1.03 0.66 1.28l0.05 0.16-5.54 0.01c-5.39 0.02-5.55 0.02-6.1 0.11q-3.1 0.51-5.15 2.59c-0.22 0.22-0.4 0.39-0.4 0.37 0-0.07 0.38-0.95 0.58-1.37 0.4-0.8 1.09-1.87 1.54-2.39 1.94-2.22 4.33-3.55 7.24-4.03 0.62-0.1 0.67-0.1 1.87-0.09 0.91 0.01 1.21 0.03 1.63 0.11z"/>
		<path class="s0" d="m28.84 10.61c0.16 0.72 0.21 1.16 0.21 1.97q0 0.86-0.07 1.32c-0.32 2.03-1.09 3.64-2.36 4.99-1.29 1.36-3.09 2.26-5.03 2.52-0.4 0.05-1.36 0.07-5.25 0.08-2.62 0.01-4.76 0.02-4.76 0.01 0-0.01 0.16-0.22 0.36-0.47 0.2-0.25 0.68-0.87 1.07-1.37 0.64-0.83 1.57-2.01 4.36-5.54 0.5-0.64 0.91-1.17 0.9-1.18-0.04-0.03-1.41 0.28-2.07 0.47-1.84 0.55-3.39 1.26-4.82 2.22-1.89 1.28-3.33 2.99-4.02 4.76q-0.34 0.87-0.49 2.04-0.02 0.09-0.04 0.13c-0.06 0.06-0.77-1.32-1-1.98q-0.56-1.53-0.44-2.92c0.06-0.64 0.19-1.34 0.34-1.79 0.13-0.38 0.48-1.15 0.67-1.46 0.07-0.12 0.13-0.22 0.13-0.24 0-0.02-0.12 0.09-0.26 0.23-1.24 1.23-1.99 2.67-2.31 4.48-0.12 0.64-0.15 2.1-0.05 2.64 0.26 1.43 0.67 2.56 1.36 3.69 0.29 0.48 0.44 0.66 1.06 1.28q3.24 3.24 7.95 3.92c0.77 0.11 2.89 0.11 3.64 0 2.21-0.33 4.04-1.02 5.87-2.22 1.26-0.81 2.72-2.23 3.62-3.49 0.62-0.88 1.36-2.23 1.73-3.18 0.23-0.57 0.5-1.49 0.64-2.09q0.89-4.11-0.55-7.98c-0.23-0.61-0.44-1.07-0.39-0.84zm-16.4 5.57c-0.3 0.38-0.9 1.14-1.03 1.29-0.04 0.05-0.29 0.37-0.57 0.72-0.27 0.35-0.58 0.73-0.68 0.86-0.49 0.59-0.96 1.48-1.17 2.19-0.33 1.15-0.31 2.19 0.05 3.26 0.32 0.97 0.65 1.44 1.73 2.53 0.64 0.64 0.83 0.81 1.35 1.15 0.59 0.4 1.52 0.89 1.99 1.05 0.33 0.12 0.17 0.12-0.37-0.01-0.82-0.2-1.84-0.61-2.61-1.07-1-0.59-2.06-1.7-2.53-2.64-0.89-1.77-0.88-3.66 0.02-5.5 0.57-1.16 1.27-2.07 2.23-2.89 0.43-0.37 1.82-1.35 1.86-1.32 0.01 0.01-0.11 0.18-0.27 0.38zm14.36 5.21c-0.69 1.4-1.28 2.27-2.22 3.24-1.88 1.95-4.07 3.09-6.79 3.54-0.54 0.09-2.15 0.13-2.73 0.06-0.9-0.09-2.13-0.39-2.7-0.65-0.35-0.16-1.23-1.07-1.63-1.7-0.33-0.52-0.87-1.85-0.78-1.94 0.01-0.01 2.49-0.03 5.5-0.03 5.06 0 5.5 0 5.93-0.08 1.56-0.26 2.73-0.72 3.89-1.52 0.5-0.34 1.15-0.88 1.52-1.26 0.15-0.15 0.27-0.26 0.28-0.25 0.01 0-0.11 0.27-0.27 0.59z"/>
	</g>
</svg>